# xmcd
#
# Track frame offsets:
# 150
# 10938
# 25348
# 41659
# 56158
# 70641
# 82377
# 99185
# 112136
# 127224
#
# Disc length: 1867 seconds
#
#
# Revision: 2
# Processed by: cddbd v1.5.1PL0 Copyright (c) Steve Scherf et al.
# Submitted via: FreeRIP 2.942 
#
DISCID=8c07490a
DTITLE=Ricky Van Shelton - Pure Country
DYEAR=1998
DGENRE=Country
TTITLE0=From A Jack To A King
TTITLE1=Lola's Love
TTITLE2=A Couple Of Good Years
TTITLE3=Just As I Am
TTITLE4=Where Was I
TTITLE5=Hole In My Pocket
TTITLE6=Life's Little Ups And Downs
TTITLE7=Wherever She Is
TTITLE8=After The Lights Go Out
TTITLE9=Oh Pretty Woman
EXTD=
EXTT0=
EXTT1=
EXTT2=
EXTT3=
EXTT4=
EXTT5=
EXTT6=
EXTT7=
EXTT8=
EXTT9=
PLAYORDER=
